<?xml version="1.0" standalone="no"?>
<!DOCTYPE svg PUBLIC "-//W3C//DTD SVG 20010904//EN"
 "http://www.w3.org/TR/2001/REC-SVG-20010904/DTD/svg10.dtd">
<svg version="1.0" xmlns="http://www.w3.org/2000/svg"
 width="1200.000000pt" height="1200.000000pt" viewBox="0 0 1200.000000 1200.000000"
 preserveAspectRatio="xMidYMid meet">
<g transform="translate(0.000000,1200.000000) scale(0.100000,-0.100000)"
fill="#000000" stroke="none">
<path d="M5920 10910 c-30 -16 -80 -39 -110 -51 -30 -12 -88 -37 -128 -55 -41
-19 -76 -34 -78 -34 -2 0 -79 -33 -171 -74 -93 -41 -305 -133 -473 -206 -168
-72 -375 -163 -461 -201 -86 -38 -162 -69 -169 -69 -6 0 -55 33 -108 73 -53
40 -131 98 -172 127 -104 75 -196 142 -328 240 l-114 83 -166 -165 c-92 -90
-197 -193 -234 -227 -66 -63 -67 -63 -73 -130 -4 -36 -22 -200 -41 -365 l-34
-298 45 -84 c25 -46 75 -143 112 -216 36 -73 83 -161 103 -194 l38 -62 -39
-51 c-35 -46 -127 -175 -275 -384 -28 -40 -113 -159 -190 -264 -76 -105 -175
-242 -219 -303 -44 -62 -116 -163 -160 -224 -45 -61 -143 -196 -218 -301 -76
-104 -174 -241 -220 -304 -117 -162 -137 -189 -288 -398 -423 -586 -730 -1009
-793 -1091 -39 -52 -77 -102 -84 -112 -7 -9 -10 -23 -6 -31 3 -8 53 -57 112
-109 58 -52 175 -162 261 -245 178 -171 931 -878 1006 -946 27 -24 59 -53 71
-64 11 -11 33 -30 48 -43 15 -12 25 -26 22 -31 -3 -4 -45 -11 -93 -14 -177
-13 -332 -28 -493 -47 -199 -23 -474 -54 -720 -80 -47 -6 -129 -13 -183 -16
-82 -6 -97 -10 -95 -23 4 -19 -69 -18 728 -8 713 8 1355 22 2005 43 641 21
798 30 826 45 l24 14 -28 3 c-15 2 -31 12 -37 22 -7 13 -26 20 -62 25 -86 10
-376 12 -618 4 -124 -4 -317 -10 -430 -13 -113 -3 -318 -8 -457 -12 -308 -8
-308 -8 -317 76 -4 32 -15 69 -25 82 -10 12 -16 29 -13 37 3 10 -1 13 -15 9
-17 -4 -19 -1 -15 21 4 21 2 24 -9 14 -15 -15 -39 0 -39 24 0 8 -23 35 -52 61
-29 26 -82 75 -118 109 -36 35 -71 63 -79 63 -8 0 -11 6 -7 15 3 8 1 15 -4 15
-6 0 -10 8 -11 18 0 10 -3 12 -6 5 -6 -17 -23 -16 -23 1 0 7 -26 39 -57 69
-47 46 -60 54 -72 44 -11 -10 -13 -8 -7 9 5 16 -1 27 -26 48 -18 14 -37 25
-42 23 -6 -2 -18 10 -27 27 -10 18 -23 30 -33 28 -11 -2 -14 2 -10 13 4 10 0
15 -10 15 -14 0 -15 4 -6 20 11 21 1 27 -17 9 -8 -8 -13 -7 -18 1 -4 7 -1 16
6 21 10 6 8 9 -8 9 -14 0 -23 6 -23 15 0 8 -7 15 -15 15 -9 0 -37 23 -62 50
-25 28 -52 50 -59 50 -8 0 -11 6 -7 16 5 13 2 15 -15 9 -23 -7 -31 9 -9 19 6
2 1 4 -13 3 -14 -1 -25 3 -25 11 0 7 -10 21 -21 30 -12 9 -29 29 -39 44 -11
17 -26 28 -40 28 -18 0 -22 4 -18 20 4 14 0 20 -10 20 -9 0 -41 27 -73 60 -31
33 -62 60 -69 60 -16 0 -67 55 -58 64 4 4 -2 9 -12 12 -12 3 -33 32 -52 70
l-32 65 20 37 c12 20 27 41 35 45 8 4 14 15 14 22 0 8 5 15 10 15 6 0 10 6 10
14 0 8 13 24 30 37 17 14 30 34 30 46 0 12 19 41 45 66 25 25 45 48 45 51 0
10 66 104 110 156 22 26 37 50 34 52 -3 3 8 19 23 35 55 57 92 108 93 126 0 9
7 17 15 17 8 0 15 6 15 14 0 8 6 21 13 28 7 7 53 69 101 138 80 112 118 163
159 210 7 9 19 30 26 48 7 18 20 32 27 32 8 0 14 5 14 11 0 11 64 105 84 124
11 10 62 83 81 115 5 10 32 46 59 81 26 34 53 75 58 91 9 24 12 27 26 16 13
-11 15 -10 9 5 -5 14 4 32 33 64 22 25 40 52 40 59 0 7 6 11 14 8 17 -6 31 12
16 21 -20 12 -11 33 12 27 15 -4 19 -2 14 7 -5 7 0 20 10 31 11 10 30 35 44
55 14 20 49 68 78 106 28 38 52 75 52 82 0 7 8 17 19 24 21 13 78 94 92 130 5
13 13 23 19 23 5 0 10 7 10 15 0 9 6 12 17 8 13 -5 15 -2 10 11 -5 13 2 28 25
52 61 63 78 85 78 99 0 8 4 15 10 15 5 0 12 11 16 25 3 14 12 25 20 25 8 0 20
15 27 33 8 17 38 64 68 102 29 39 52 72 50 74 -2 2 7 15 20 30 35 38 103 132
119 164 7 15 19 27 27 27 7 0 13 6 13 13 0 7 16 32 35 54 19 23 35 47 35 55 0
7 9 19 20 26 11 7 20 19 20 27 0 8 6 18 13 22 6 4 19 22 27 38 8 17 26 46 41
65 33 45 53 111 53 181 0 53 -7 73 -80 246 -8 17 -14 36 -14 42 0 6 -6 8 -14
5 -15 -6 -29 33 -15 42 5 3 -4 22 -20 42 -16 20 -43 66 -60 101 -26 54 -31 76
-31 136 0 80 25 338 40 425 20 104 56 210 73 210 4 0 7 5 7 11 0 12 117 129
129 129 4 0 41 33 82 74 66 65 78 73 104 69 32 -5 97 -32 105 -43 3 -4 43 -32
90 -64 166 -112 179 -121 179 -133 1 -7 8 -13 16 -13 9 0 26 -9 38 -21 89 -85
266 -163 308 -136 15 9 21 8 33 -8 14 -19 15 -19 21 -2 4 9 16 17 26 17 11 0
27 4 37 9 9 5 58 26 107 47 50 20 101 42 115 49 29 15 50 24 145 60 39 15 115
49 170 75 55 26 116 53 135 60 65 24 295 123 304 131 6 5 17 9 26 9 8 0 31 8
50 18 19 11 41 17 48 15 7 -3 10 1 6 10 -3 10 3 16 23 20 15 3 55 16 89 31 33
14 85 32 115 40 30 8 61 17 69 20 10 4 22 -4 35 -26 20 -33 20 -56 20 -1633
-1 -880 -4 -1616 -7 -1635 -4 -19 -7 -38 -7 -41 -1 -4 -11 -19 -23 -35 -13
-15 -23 -35 -23 -44 0 -8 -8 -14 -17 -14 -11 1 -18 -5 -18 -16 0 -10 -7 -25
-15 -34 -8 -8 -15 -19 -15 -24 0 -4 -11 -19 -25 -32 -14 -13 -25 -34 -25 -47
0 -13 -4 -23 -8 -23 -4 0 -21 -26 -37 -57 -17 -32 -34 -63 -40 -70 -33 -41
-44 -60 -86 -142 -17 -35 -54 -100 -82 -145 -143 -231 -197 -324 -197 -339 0
-10 -4 -17 -9 -17 -5 0 -13 -10 -17 -22 -4 -13 -20 -42 -35 -65 -16 -23 -29
-45 -29 -50 0 -4 -9 -14 -20 -21 -11 -7 -20 -19 -20 -27 0 -8 -5 -15 -11 -15
-6 0 -9 -7 -6 -14 3 -8 -18 -51 -48 -96 -29 -44 -62 -98 -72 -120 -11 -24 -25
-40 -35 -40 -12 0 -18 -8 -18 -21 0 -17 -3 -19 -13 -10 -10 8 -17 7 -25 -1
-20 -20 -407 -11 -465 11 -14 5 -42 8 -63 5 -22 -3 -55 -6 -74 -8 -44 -4 -80
-15 -80 -25 0 -11 65 -29 130 -36 63 -7 143 -18 250 -35 41 -6 102 -15 135
-20 64 -10 158 -25 215 -36 44 -7 41 -11 140 159 42 73 106 182 142 242 218
366 330 557 403 685 45 80 100 177 122 215 22 39 66 117 98 175 32 58 65 116
74 130 8 14 14 30 11 35 -6 15 0 3435 6 3472 l6 31 43 -29 c24 -16 48 -29 55
-29 7 0 10 -7 6 -16 -5 -14 -1 -16 25 -10 25 5 30 3 25 -9 -4 -11 5 -16 34
-21 22 -4 40 -10 40 -13 0 -4 17 -13 38 -20 20 -8 66 -27 102 -43 89 -40 99
-45 143 -59 38 -13 46 -23 25 -33 -7 -3 0 -3 15 1 17 3 34 0 45 -9 9 -8 34
-20 56 -27 43 -15 133 -56 156 -71 25 -16 74 -33 91 -31 9 1 19 -5 22 -12 3
-8 44 -29 92 -46 48 -17 110 -42 138 -55 29 -13 84 -36 122 -51 39 -16 84 -36
100 -46 31 -18 108 -48 135 -53 15 -2 19 -4 80 -25 19 -7 46 -16 60 -19 23 -5
24 -4 11 12 -14 16 -12 17 21 11 22 -4 38 -3 42 4 4 6 18 11 30 11 13 0 29 7
36 15 7 8 19 15 27 15 7 0 16 7 19 15 4 8 13 15 20 15 8 0 19 11 24 25 5 14
17 25 26 25 18 0 87 47 134 90 15 14 38 31 51 38 13 7 44 31 68 52 43 39 53
44 78 41 6 -1 21 12 33 28 28 40 83 56 124 36 16 -8 35 -15 42 -15 8 0 49 -34
91 -75 43 -41 86 -75 95 -75 9 0 20 -4 23 -10 3 -5 27 -19 53 -32 l47 -22 -34
-4 c-19 -2 -44 1 -55 6 -38 17 -91 34 -118 39 -16 3 -28 9 -28 14 0 5 -13 9
-29 9 -17 0 -33 5 -36 10 -3 6 -17 10 -30 10 -13 0 -27 5 -30 10 -13 21 -45 8
-77 -31 -18 -22 -65 -75 -104 -117 -39 -42 -90 -99 -114 -127 -23 -27 -72 -81
-109 -120 -37 -38 -70 -76 -75 -83 -8 -13 35 -77 104 -157 19 -22 45 -54 57
-70 19 -25 24 -28 33 -15 5 8 10 32 10 52 0 20 5 40 10 43 15 10 12 41 -6 56
-15 13 -17 11 -12 -19 2 -17 4 -32 3 -32 -13 0 -69 69 -67 82 2 11 -3 18 -13
18 -11 0 -15 5 -12 15 4 8 2 17 -3 20 -9 5 40 79 63 96 4 3 5 13 1 22 -4 12
-1 17 12 17 9 0 26 7 36 17 16 14 22 14 43 3 21 -11 25 -19 20 -42 -5 -21 -3
-27 7 -23 8 3 30 54 48 113 19 59 45 128 57 154 13 27 23 52 23 56 0 5 10 18
23 30 18 17 31 21 55 16 18 -4 35 -11 38 -15 3 -5 13 -9 22 -9 9 0 28 -9 42
-20 14 -11 51 -25 83 -31 43 -9 57 -16 55 -28 -2 -10 4 -16 16 -16 11 0 21 -6
24 -13 2 -6 11 -12 19 -12 12 0 13 -3 4 -14 -10 -11 -8 -16 5 -24 10 -5 24
-29 31 -53 28 -88 43 -151 39 -158 -3 -4 2 -65 11 -136 16 -135 21 -280 11
-327 -3 -15 -25 -66 -49 -113 -24 -47 -48 -94 -54 -105 -5 -11 -13 -20 -17
-20 -3 0 -20 -28 -36 -62 -38 -80 -62 -104 -91 -88 -23 12 -27 2 -12 -28 44
-86 59 -130 54 -163 -3 -26 2 -50 21 -87 14 -28 30 -53 36 -57 5 -3 10 -13 10
-21 0 -13 41 -74 94 -139 13 -17 32 -48 42 -68 10 -20 24 -37 31 -37 7 0 13
-4 13 -9 0 -4 11 -20 25 -34 16 -16 22 -28 15 -32 -15 -9 -2 -25 15 -18 8 3
15 0 15 -5 0 -15 48 -85 65 -94 7 -5 11 -17 8 -28 -3 -12 0 -20 6 -20 17 0 59
-49 82 -97 12 -24 25 -43 30 -43 5 0 9 -6 9 -14 0 -8 15 -32 33 -55 63 -80 77
-99 77 -108 0 -5 8 -16 18 -24 25 -23 52 -58 52 -67 0 -5 11 -19 25 -32 14
-13 25 -27 25 -32 0 -5 5 -14 10 -21 51 -61 101 -128 116 -153 30 -50 91 -136
124 -174 16 -19 34 -40 40 -47 5 -7 10 -19 10 -28 0 -8 5 -15 10 -15 6 0 10
-10 10 -21 0 -17 3 -19 13 -10 17 13 28 5 20 -16 -3 -8 4 -21 16 -29 11 -8 28
-30 37 -47 9 -18 23 -36 30 -40 8 -4 14 -15 14 -22 0 -8 4 -15 10 -15 5 0 16
-15 25 -34 9 -18 27 -44 41 -57 13 -12 24 -28 24 -35 0 -7 9 -19 19 -26 10 -8
21 -24 23 -37 4 -30 25 -39 31 -14 4 17 5 17 6 0 0 -11 9 -31 19 -45 10 -15
26 -44 36 -64 9 -21 21 -38 25 -38 12 0 61 -77 61 -95 0 -8 7 -15 15 -15 8 0
15 -9 15 -20 0 -11 7 -20 15 -20 8 0 20 -10 26 -22 7 -13 27 -40 46 -62 19
-21 41 -53 49 -71 7 -18 34 -56 59 -86 25 -29 45 -57 45 -63 0 -6 10 -20 23
-31 13 -11 32 -34 42 -52 10 -18 22 -30 26 -27 4 2 10 0 13 -5 4 -5 2 -12 -4
-16 -18 -11 -10 -27 11 -22 15 4 19 2 15 -8 -3 -8 -1 -17 4 -20 5 -3 39 -52
77 -108 37 -56 80 -115 95 -132 15 -16 28 -33 28 -37 0 -4 7 -16 15 -25 33
-41 115 -154 115 -161 0 -4 14 -20 30 -36 17 -16 30 -35 30 -43 0 -7 7 -13 16
-13 12 0 14 -7 8 -32 -6 -29 -5 -31 10 -19 16 14 20 9 17 -21 -1 -10 3 -18 10
-18 9 0 9 -3 0 -14 -6 -7 -9 -20 -6 -27 3 -8 -4 -27 -14 -43 -20 -30 -97 -96
-112 -96 -5 0 -9 -4 -9 -9 0 -14 -150 -161 -164 -161 -8 0 -24 -16 -36 -35
-13 -20 -30 -35 -41 -35 -10 0 -19 -5 -19 -12 0 -19 -79 -88 -101 -88 -10 0
-19 -7 -19 -15 0 -8 -4 -15 -9 -15 -4 0 -20 -17 -34 -38 -35 -52 -105 -122
-122 -122 -8 0 -15 -6 -15 -13 0 -7 -18 -26 -40 -43 -29 -22 -38 -34 -34 -49
4 -15 3 -17 -4 -6 -15 21 -45 6 -37 -19 5 -16 2 -20 -17 -18 -15 2 -26 -4 -32
-17 -5 -11 -33 -40 -62 -65 -30 -25 -54 -51 -54 -58 0 -8 -7 -11 -19 -7 -15 5
-18 1 -14 -22 3 -20 2 -24 -5 -14 -12 17 -35 4 -28 -15 3 -8 -1 -14 -9 -14 -8
0 -15 -3 -15 -7 0 -5 -14 -17 -30 -28 -16 -11 -30 -25 -30 -32 0 -6 -9 -9 -22
-6 -19 5 -21 3 -11 -7 10 -11 7 -18 -13 -37 -14 -12 -29 -23 -33 -23 -5 0 -27
-20 -50 -45 -23 -25 -46 -45 -51 -45 -5 0 -7 -7 -4 -15 4 -9 -4 -23 -20 -36
-15 -11 -33 -34 -41 -49 -17 -33 -20 -100 -5 -100 6 0 10 -11 10 -25 0 -41
-54 -49 -290 -41 -205 7 -467 13 -803 20 -98 2 -180 6 -183 9 -4 3 -17 2 -31
-4 -13 -5 -40 -9 -59 -9 -19 0 -53 -9 -76 -21 -33 -17 -42 -18 -49 -7 -16 26
-21 120 -14 254 5 96 4 135 -4 133 -5 -2 -40 -33 -77 -69 -51 -50 -62 -66 -49
-68 10 -2 22 2 26 10 17 24 39 -21 39 -78 0 -74 -27 -105 -98 -112 -37 -3 -58
0 -76 11 -21 14 -26 14 -36 2 -7 -8 -17 -15 -22 -15 -10 0 29 58 56 80 10 9
17 22 15 28 -6 19 -309 -237 -309 -261 0 -5 14 -7 30 -5 20 3 30 0 30 -9 0 -7
7 -13 15 -13 8 0 24 -9 35 -20 11 -11 23 -20 28 -20 16 0 72 -60 72 -77 0 -36
-57 -58 -150 -58 -111 0 -170 23 -170 67 0 30 19 58 39 58 6 0 11 7 11 15 0
20 -2 19 -36 -10 -44 -39 -139 -95 -160 -95 -11 0 -30 9 -44 20 -14 11 -32 20
-42 20 -9 0 -18 5 -20 11 -2 6 -21 15 -43 19 -68 15 -178 49 -241 75 -17 8
-52 16 -77 20 -25 4 -48 13 -51 21 -3 8 -20 14 -38 14 -18 0 -42 7 -52 15 -11
8 -32 15 -46 15 -15 0 -30 3 -34 7 -4 4 -33 15 -64 24 -84 25 -155 52 -186 73
-17 10 -39 16 -53 13 -15 -3 -48 5 -78 19 -58 25 -60 25 -157 28 l-67 1 -10
61 c-14 80 -14 227 0 258 l12 25 30 -21 c28 -20 34 -21 99 -10 38 7 74 10 79
6 6 -3 15 -1 22 4 11 9 93 24 217 40 49 6 53 8 35 19 -18 11 -16 12 17 13 20
0 41 6 45 13 4 7 28 21 53 32 25 10 58 31 74 47 15 15 33 28 38 28 5 0 26 13
46 30 55 44 110 52 259 39 71 -6 140 -18 155 -25 15 -8 33 -14 40 -13 7 0 4 4
-7 9 -19 7 -19 8 -1 15 11 5 21 3 26 -5 8 -14 114 -21 197 -12 57 5 62 17 11
25 -18 3 -54 11 -80 16 -27 6 -67 15 -90 20 -24 5 -68 14 -98 21 -30 7 -73 16
-95 20 -87 16 -202 41 -243 52 l-43 11 -62 -60 c-126 -122 -204 -163 -392
-211 -228 -58 -399 -61 -633 -11 -215 47 -318 98 -439 218 -57 56 -54 55 -103
41 -19 -6 -62 -15 -95 -21 -100 -18 -133 -25 -380 -79 -22 -5 -58 -13 -80 -19
-22 -6 -52 -13 -67 -17 -16 -3 -28 -10 -28 -14 0 -13 43 -20 56 -9 9 7 19 7
32 0 27 -14 165 -9 185 7 10 9 24 11 39 6 29 -10 131 -5 138 7 3 4 46 9 96 10
82 1 95 -1 149 -29 33 -17 98 -56 145 -87 47 -30 96 -58 110 -61 14 -3 39 -12
57 -20 17 -8 43 -14 57 -14 15 0 34 -4 44 -9 30 -16 95 -31 169 -40 55 -7 82
-16 117 -40 46 -32 46 -32 46 -92 0 -85 -24 -125 -97 -160 -32 -16 -68 -29
-80 -29 -12 0 -28 -7 -37 -15 -8 -8 -24 -15 -35 -15 -12 0 -21 -4 -21 -10 0
-5 -13 -10 -28 -10 -15 0 -32 -4 -37 -8 -6 -5 -62 -26 -125 -47 -63 -21 -123
-41 -132 -46 -10 -5 -27 -9 -38 -9 -11 0 -23 -7 -26 -15 -4 -9 -13 -13 -23
-10 -9 3 -34 -4 -56 -15 -22 -11 -50 -20 -62 -20 -13 0 -31 -4 -41 -9 -24 -14
-168 -61 -227 -74 -27 -7 -56 -16 -62 -20 -7 -4 -30 -10 -50 -11 -21 -2 -85
-20 -143 -41 -95 -34 -115 -38 -205 -38 -105 0 -175 19 -175 47 0 20 49 76 66
76 8 0 14 5 14 11 0 6 11 20 25 31 14 11 25 28 25 39 0 22 -3 23 -28 10 -9 -5
-35 -14 -57 -20 -22 -6 -71 -19 -110 -30 -38 -11 -110 -24 -160 -31 -147 -19
-155 -20 -155 -33 0 -18 132 -100 243 -151 217 -101 296 -101 622 -2 265 80
894 286 985 322 36 14 111 44 167 66 61 24 111 38 125 35 13 -3 82 -26 153
-52 175 -64 821 -280 915 -306 41 -11 100 -29 130 -40 359 -124 446 -129 643
-42 87 38 217 116 246 147 l24 25 -27 11 c-15 5 -39 10 -52 10 -14 0 -44 4
-67 9 -23 5 -69 15 -102 21 -59 12 -160 42 -200 60 -11 5 -29 10 -39 12 -11 2
-18 8 -15 13 5 12 263 13 454 3 72 -4 245 -10 385 -14 140 -3 422 -10 625 -15
553 -13 2015 -31 2032 -25 8 3 12 10 9 15 -8 12 -56 21 -176 31 -123 10 -322
32 -959 105 -124 14 -264 25 -313 25 -66 0 -88 3 -88 13 0 7 60 66 133 130 72
64 152 135 177 159 25 23 115 108 200 189 205 193 713 671 821 773 47 45 111
103 142 130 32 27 57 55 57 63 0 8 -13 31 -29 51 -25 32 -64 86 -254 347 -171
235 -279 385 -315 438 -24 34 -67 94 -96 132 -29 39 -117 160 -196 270 -79
110 -160 223 -180 250 -20 28 -54 75 -76 105 -22 30 -72 98 -110 150 -39 52
-91 124 -116 160 -24 36 -103 146 -174 245 -273 378 -362 502 -457 634 -235
329 -287 401 -376 520 -51 69 -96 131 -98 138 -5 12 54 132 192 398 38 72 74
142 82 158 8 15 12 39 9 55 -7 32 -40 322 -61 537 l-16 150 -72 68 c-40 37
-145 140 -234 229 l-163 160 -72 -54 c-40 -30 -134 -99 -208 -153 -74 -54
-169 -124 -210 -155 -41 -31 -95 -70 -120 -87 -25 -17 -58 -42 -74 -56 -17
-14 -32 -24 -35 -23 -17 9 -163 76 -167 76 -2 0 -27 11 -56 24 -29 13 -81 36
-115 50 -35 14 -86 37 -115 50 -29 13 -82 36 -118 51 -36 14 -78 32 -95 39
-143 64 -573 250 -859 372 -81 35 -151 64 -155 64 -3 -1 -31 -14 -61 -30z"/>
<path d="M8130 9900 c0 -11 5 -20 10 -20 6 0 10 9 10 20 0 11 -4 20 -10 20 -5
0 -10 -9 -10 -20z"/>
<path d="M8130 9673 c1 -5 12 -21 25 -38 22 -26 25 -27 31 -11 5 13 0 24 -17
37 -26 20 -39 24 -39 12z"/>
<path d="M8190 9593 c1 -14 69 -87 76 -81 3 4 -9 25 -27 47 -32 39 -49 50 -49
34z"/>
<path d="M4025 8299 c-3 -4 -1 -10 4 -14 34 -20 168 -90 465 -240 l339 -172
23 -59 c12 -33 43 -113 69 -178 25 -66 52 -134 60 -153 36 -81 44 -101 60
-143 17 -45 49 -119 66 -152 5 -10 9 -23 9 -29 0 -6 7 -17 15 -25 13 -13 14
-12 9 14 -3 17 -2 37 3 46 15 27 -15 190 -53 291 -4 11 -6 29 -6 40 1 11 -1
14 -4 8 -12 -28 -26 -12 -21 22 3 19 2 35 -4 35 -5 0 -9 8 -9 18 0 10 -13 49
-30 87 -16 39 -30 77 -30 86 0 9 -7 22 -15 29 -8 7 -15 21 -15 32 0 10 -7 21
-15 24 -8 4 -15 11 -15 17 0 7 -19 29 -42 50 -34 31 -39 40 -28 48 11 8 9 9
-7 4 -13 -3 -23 -2 -23 3 0 11 -192 112 -214 112 -9 0 -16 5 -16 10 0 6 -7 10
-17 10 -9 0 -31 12 -50 26 -19 14 -58 34 -86 44 -29 10 -65 26 -82 34 -16 9
-40 16 -51 16 -12 0 -24 7 -28 15 -3 9 -18 15 -36 15 -16 0 -30 5 -30 11 0 7
-12 9 -32 6 -18 -2 -44 0 -58 5 -32 13 -99 18 -105 7z"/>
<path d="M7834 8289 c-4 -6 0 -16 7 -21 10 -6 4 -7 -16 -3 -21 4 -46 -2 -83
-20 -28 -14 -58 -25 -66 -25 -21 0 -76 -25 -300 -136 -237 -118 -250 -124
-255 -136 -1 -5 -11 -17 -20 -26 -34 -32 -81 -135 -112 -244 -12 -43 -26 -78
-31 -78 -4 0 -8 -9 -8 -20 0 -11 -11 -43 -24 -72 -31 -69 -52 -151 -66 -268
-7 -52 -16 -100 -22 -107 -6 -7 -5 -14 2 -18 5 -3 10 1 10 9 0 9 5 16 10 16 6
0 10 7 10 15 0 8 9 35 20 60 11 25 29 65 40 90 11 25 20 51 20 58 0 7 4 17 8
23 5 5 19 36 32 69 12 33 30 78 40 100 10 22 44 106 75 188 51 129 61 148 84
154 40 10 756 373 748 379 -1 1 -15 4 -31 8 -26 6 -28 5 -17 -8 20 -24 -5 -20
-29 4 -12 12 -22 15 -26 9z"/>
<path d="M3960 8251 c0 -6 7 -11 15 -11 8 0 19 -9 24 -19 9 -17 8 -18 -12 -14
l-22 6 22 -22 c12 -11 27 -21 33 -21 7 0 9 -8 5 -20 -5 -16 -2 -20 20 -20 22
0 25 -3 19 -25 -3 -14 -2 -25 3 -25 16 0 74 -60 68 -70 -3 -5 3 -15 15 -22 11
-7 20 -21 20 -31 0 -11 8 -31 19 -45 10 -15 23 -50 29 -77 23 -109 80 -200
146 -236 17 -9 29 -19 26 -22 -9 -11 41 -39 60 -34 10 3 33 -4 50 -15 18 -10
51 -26 74 -35 114 -43 197 -84 210 -105 6 -10 16 -18 23 -18 6 0 13 -4 15 -9
7 -22 144 -181 155 -181 6 0 15 -9 18 -21 4 -12 12 -18 21 -15 8 3 14 1 14 -4
0 -6 7 -10 15 -10 17 0 20 -16 5 -25 -5 -3 -10 -12 -9 -18 0 -9 2 -9 6 1 2 6
11 12 18 12 37 0 31 15 -65 170 -29 47 -71 116 -93 153 -22 37 -49 75 -61 83
-20 13 -110 48 -380 149 -48 19 -90 36 -93 39 -3 3 -25 74 -49 158 -24 84 -49
165 -55 179 -5 14 -40 48 -77 75 -37 26 -69 51 -72 54 -3 3 -27 22 -55 41 -27
18 -52 37 -55 40 -10 13 -50 20 -50 10z"/>
<path d="M7980 8242 c0 -4 -13 -16 -30 -25 -16 -10 -35 -23 -42 -30 -7 -7 -29
-24 -48 -37 -19 -13 -37 -27 -40 -30 -3 -3 -25 -20 -49 -38 l-45 -32 -52 -176
c-29 -97 -54 -177 -56 -179 -4 -3 -297 -118 -388 -151 -41 -15 -80 -32 -87
-37 -11 -8 -123 -184 -123 -194 0 -2 -18 -31 -40 -63 -22 -32 -40 -63 -40 -67
0 -4 -9 -19 -20 -33 -11 -14 -20 -32 -19 -40 0 -12 2 -11 13 3 9 11 20 15 32
10 16 -6 17 -4 6 9 -10 12 -9 18 3 28 10 9 15 9 15 1 0 -23 18 -10 34 24 10
19 30 45 46 56 16 12 34 34 40 49 6 15 25 37 41 49 17 12 28 30 27 39 -2 11 3
16 14 14 9 -1 22 6 28 18 13 25 63 50 160 81 41 13 95 36 120 50 25 15 59 31
75 35 89 21 181 162 250 386 10 31 28 66 41 77 13 12 24 28 24 36 0 8 7 15 15
15 9 0 20 11 25 25 5 13 18 30 29 36 10 7 17 18 14 25 -2 7 7 23 21 35 27 23
33 39 16 39 -5 0 -10 -4 -10 -8z"/>
<path d="M6020 7323 c0 -15 81 -168 188 -353 293 -508 361 -625 482 -825 73
-121 157 -263 187 -315 74 -131 67 -126 150 -107 37 8 102 20 143 27 128 19
203 31 253 41 27 5 62 9 79 9 17 0 47 4 67 10 20 5 53 12 75 15 51 8 39 17
-31 23 -97 8 -175 5 -253 -8 -97 -16 -361 -19 -357 -4 1 6 -17 28 -40 50 -23
22 -49 56 -57 76 -9 20 -20 39 -25 42 -5 3 -12 17 -15 30 -7 29 -56 106 -68
106 -4 0 -8 9 -8 21 0 12 -8 23 -20 26 -11 3 -20 13 -20 23 0 17 -28 79 -41
90 -3 3 -9 12 -12 20 -4 8 -25 42 -47 75 -22 33 -52 85 -67 115 -16 30 -30 57
-33 60 -9 9 -80 128 -80 134 0 8 -91 150 -101 156 -4 3 -10 17 -14 32 -4 15
-13 32 -20 38 -7 5 -11 22 -9 38 2 15 1 21 -2 15 -3 -7 -9 -13 -14 -13 -13 0
-18 38 -7 49 8 8 6 11 -5 11 -15 0 -78 89 -78 110 0 6 -4 10 -10 10 -5 0 -10
11 -10 25 0 14 -4 25 -9 25 -5 0 -14 13 -20 29 -14 33 -57 67 -97 77 -16 4
-35 11 -41 17 -9 6 -13 6 -13 0z"/>
<path d="M5760 5880 c-213 -16 -295 -56 -307 -147 -13 -101 108 -219 361 -347
92 -47 101 -54 113 -91 22 -65 45 -226 38 -268 -15 -86 -91 -124 -192 -97 -72
20 -118 45 -221 124 -124 94 -120 91 -127 84 -27 -27 133 -204 235 -261 97
-53 165 -67 330 -67 163 0 230 13 331 66 108 57 252 216 235 260 -5 12 -25 0
-88 -55 -140 -120 -292 -181 -369 -149 -54 24 -73 71 -64 167 10 114 34 213
59 240 11 12 46 36 76 51 91 46 263 164 299 205 64 73 77 138 38 196 -26 40
-73 65 -147 79 -72 14 -469 21 -600 10z m532 -124 c48 -21 63 -47 49 -89 -14
-40 -49 -77 -66 -71 -7 3 -16 -4 -20 -15 -3 -12 -11 -21 -16 -21 -21 0 -209
-134 -209 -149 -1 -13 -2 -13 -11 2 -8 14 -14 15 -24 7 -9 -8 -28 0 -76 31
-35 24 -82 55 -105 69 -22 15 -53 30 -68 34 -17 4 -26 12 -23 20 4 9 -2 12
-16 9 -28 -4 -77 58 -77 97 0 78 81 96 420 93 162 -1 213 -5 242 -17z"/>
<path d="M4226 5781 c-4 -6 0 -11 8 -11 18 0 22 -16 5 -22 -9 -3 -9 -10 0 -27
7 -12 10 -25 8 -28 -12 -11 -92 -23 -184 -28 -563 -29 -907 -65 -941 -99 -11
-11 5 -13 105 -10 65 2 215 6 333 9 118 4 332 10 475 16 143 5 421 12 618 15
294 5 357 9 357 20 0 7 -10 16 -22 18 -25 4 -297 62 -363 77 -47 11 -129 27
-200 40 -74 14 -137 27 -166 34 -16 4 -29 2 -33 -4z"/>
<path d="M7725 5780 c-3 -5 3 -10 14 -10 12 0 21 5 21 10 0 6 -6 10 -14 10 -8
0 -18 -4 -21 -10z"/>
<path d="M7637 5764 c-8 -8 -80 -24 -234 -53 -27 -5 -91 -18 -143 -30 -52 -12
-133 -28 -180 -36 -47 -8 -86 -14 -87 -15 -2 0 -3 -6 -3 -14 0 -12 72 -15 438
-20 240 -3 498 -8 572 -11 739 -26 792 -27 803 -16 8 8 -3 11 -43 13 -89 3
-115 5 -120 8 -12 7 -268 31 -320 30 -19 -1 -127 6 -240 14 -113 9 -212 15
-220 14 -8 0 -23 2 -33 7 -10 4 -41 5 -68 2 -34 -4 -53 -2 -61 7 -7 7 -20 11
-30 8 -10 -2 -18 1 -18 7 0 6 5 11 10 11 10 0 50 58 50 73 0 9 -64 10 -73 1z"/>
<path d="M4739 5515 c-3 -2 -381 -5 -840 -5 -501 -1 -840 -5 -849 -10 -10 -7
6 -10 52 -10 37 0 70 -4 73 -10 3 -5 18 -10 33 -10 15 0 52 -7 82 -15 35 -10
126 -17 255 -20 110 -3 218 -8 240 -10 22 -3 149 -6 282 -6 152 0 245 -4 249
-11 3 -5 20 -7 38 -4 26 5 33 2 41 -16 9 -21 16 -23 70 -21 33 1 164 6 290 10
l230 8 0 65 0 65 -121 3 c-66 1 -122 0 -125 -3z"/>
<path d="M7000 5454 l0 -61 128 -6 c70 -4 184 -7 254 -7 126 0 128 0 125 22
-2 21 3 23 73 30 41 4 185 10 320 12 135 3 270 9 300 14 30 6 106 9 168 7 62
-1 115 2 118 7 3 5 21 6 39 2 19 -3 40 -2 47 3 7 4 42 9 78 9 36 1 97 2 135 4
l70 2 -50 8 c-27 5 -445 10 -927 12 l-878 4 0 -62z"/>
<path d="M7003 5344 c-22 -9 -15 -43 10 -49 12 -3 74 -10 137 -15 63 -6 142
-15 175 -20 33 -6 89 -14 125 -19 155 -22 229 -33 290 -42 36 -5 97 -14 135
-19 39 -5 82 -12 98 -16 17 -4 27 -2 27 5 0 6 -14 11 -31 11 -17 0 -37 7 -45
15 -9 8 -26 15 -38 15 -13 0 -34 8 -47 19 -17 13 -40 18 -79 18 -37 -1 -64 4
-80 16 -13 9 -40 17 -60 18 -41 1 -119 27 -83 28 12 1 24 5 27 9 3 5 -110 12
-252 15 -141 4 -266 9 -277 11 -11 3 -26 3 -32 0z"/>
<path d="M4610 5330 c-174 -4 -221 -8 -206 -16 19 -11 19 -12 0 -17 -10 -3
-39 -9 -64 -12 -25 -4 -49 -11 -55 -15 -5 -4 -32 -10 -60 -14 -58 -8 -105 -25
-105 -37 0 -5 -13 -9 -30 -9 -20 0 -30 -5 -30 -15 0 -10 -10 -15 -31 -15 -20
0 -28 -4 -23 -11 7 -12 50 -9 194 11 36 5 99 13 140 19 88 12 180 26 270 41
74 13 155 24 285 40 95 11 111 19 102 44 -5 13 -21 16 -84 14 -43 -1 -179 -5
-303 -8z"/>
<path d="M4945 5189 c-27 -5 -115 -13 -195 -19 -80 -5 -188 -14 -240 -19 -52
-6 -142 -15 -200 -21 -58 -6 -159 -13 -225 -16 -120 -6 -186 -24 -90 -24 28 0
69 -9 92 -19 38 -18 59 -19 225 -14 303 9 501 9 539 0 42 -11 64 -44 45 -67
-13 -17 -108 -60 -148 -67 -15 -3 -35 -14 -44 -24 -9 -10 -23 -19 -30 -19 -23
0 -107 -40 -120 -57 -6 -10 -9 -23 -7 -31 4 -10 -1 -11 -21 -6 -17 4 -26 2
-26 -5 0 -18 29 -25 53 -13 24 11 114 41 187 62 25 7 70 21 100 31 110 35 196
58 248 65 30 4 56 13 59 20 3 7 -8 29 -24 49 -15 20 -46 73 -68 118 -22 44
-44 82 -50 82 -5 1 -32 -2 -60 -6z"/>
<path d="M6959 5173 c-19 -51 -61 -128 -90 -165 -16 -20 -29 -41 -29 -47 0 -6
17 -13 38 -16 47 -8 119 -24 152 -35 14 -5 59 -18 100 -30 41 -12 86 -26 100
-30 14 -4 59 -18 100 -30 41 -12 83 -26 92 -31 10 -5 27 -9 37 -9 11 0 23 -4
26 -10 3 -5 13 -10 21 -10 8 0 14 5 14 10 0 6 -9 10 -20 10 -11 0 -20 5 -20
10 0 6 -7 10 -15 10 -8 0 -20 9 -27 21 -14 22 -165 98 -258 129 -98 33 -152
59 -148 73 3 6 22 22 44 34 33 19 51 22 121 19 70 -3 88 -7 132 -35 78 -48
106 -41 51 13 -50 49 -42 58 48 52 42 -4 112 -11 154 -17 58 -8 85 -8 113 1
27 9 47 9 85 0 54 -13 105 -6 114 15 6 17 -19 22 -164 30 -58 3 -148 10 -200
15 -52 5 -151 14 -220 19 -69 6 -163 15 -210 21 -124 15 -129 14 -141 -17z"/>
<path d="M7563 4850 c20 -29 67 -63 75 -55 7 7 -65 75 -80 75 -5 0 -3 -9 5
-20z"/>
<path d="M7877 4213 c-12 -11 -8 -23 8 -23 8 0 15 7 15 15 0 16 -12 20 -23 8z"/>
<path d="M3115 3730 c-66 -4 -210 -13 -320 -19 -377 -22 -941 -61 -1176 -81
-129 -11 -288 -25 -354 -31 -431 -35 -488 -42 -492 -56 -4 -10 187 -13 884
-15 l888 -3 180 -95 c147 -77 317 -163 483 -243 52 -25 14 -36 -238 -67 -84
-10 -901 -124 -1070 -149 -129 -19 -226 -32 -265 -34 -30 -1 -41 -7 -43 -21
-4 -19 4 -19 284 -12 443 11 957 25 1294 36 168 5 472 15 675 20 395 12 462
17 457 40 -6 26 24 30 163 24 93 -4 157 -2 190 6 28 7 64 12 80 12 17 0 33 5
36 10 4 6 26 12 50 13 25 2 48 10 55 19 6 9 20 16 31 16 11 0 22 3 26 6 3 4
34 17 69 29 216 76 253 91 256 98 2 4 9 7 16 7 6 0 50 16 96 36 47 20 97 39
111 44 15 4 38 15 52 25 14 9 31 14 37 10 5 -3 22 3 36 14 14 11 41 23 60 27
19 3 34 10 34 15 0 5 8 9 18 9 9 0 35 9 57 19 155 76 229 89 315 56 25 -9 67
-25 94 -35 27 -10 51 -22 55 -27 3 -6 20 -13 36 -17 17 -4 53 -18 80 -31 28
-13 64 -27 80 -31 17 -4 49 -18 73 -31 23 -13 46 -21 51 -19 5 3 14 -1 21 -9
7 -8 18 -15 26 -15 7 0 15 -4 18 -9 10 -16 -23 -79 -60 -115 -21 -20 -32 -36
-26 -36 11 0 110 74 127 95 14 17 82 45 110 45 12 0 28 -7 35 -15 7 -8 18 -15
25 -15 7 0 15 -6 18 -14 3 -8 30 -22 59 -31 29 -10 67 -24 83 -33 17 -8 38
-19 47 -23 10 -5 26 -9 35 -9 36 0 94 -21 112 -41 13 -14 21 -17 26 -9 5 8 14
6 31 -5 14 -9 29 -13 35 -10 5 4 16 1 24 -5 8 -7 21 -10 30 -7 8 4 16 3 19 -1
4 -7 134 -15 276 -16 56 -1 84 -11 75 -26 -15 -24 32 -31 232 -36 114 -2 339
-8 498 -14 297 -10 386 -13 1125 -29 234 -6 518 -13 631 -17 157 -4 208 -3
214 6 11 17 -14 30 -58 30 -21 0 -71 5 -110 11 -358 53 -656 96 -902 129 -126
17 -260 35 -297 40 -82 12 -188 13 -207 1 -16 -10 -6 -50 18 -68 9 -6 13 -15
9 -19 -14 -14 -249 -32 -282 -22 -17 5 -135 9 -263 9 l-231 0 -7 49 c-10 71
11 150 36 135 4 -3 30 8 57 25 27 16 58 30 70 30 11 0 38 15 61 34 22 19 59
43 81 53 22 10 40 25 41 33 0 10 2 11 6 3 8 -21 26 -15 20 7 -3 12 0 20 7 20
6 0 34 21 61 47 28 26 66 55 85 66 19 11 40 28 47 37 7 10 35 32 62 49 45 29
57 32 162 38 70 3 148 1 204 -7 50 -7 135 -15 189 -19 67 -5 101 -12 104 -21
3 -7 13 -21 22 -30 17 -17 17 -19 2 -25 -9 -4 -129 -10 -267 -13 l-249 -5 -51
-47 c-50 -47 -209 -175 -297 -240 -26 -19 -49 -40 -52 -46 -3 -8 24 -14 82
-18 47 -4 110 -12 140 -17 44 -8 57 -8 70 4 10 8 177 95 372 192 l355 178 785
-5 c781 -5 928 -2 933 17 2 12 -42 17 -613 65 -482 40 -800 62 -1295 90 -104
6 -284 18 -398 26 l-208 16 -82 -79 c-182 -174 -356 -299 -533 -383 -221 -106
-402 -150 -612 -150 l-122 0 -148 56 c-81 30 -196 73 -257 94 -148 51 -451
171 -725 286 l-225 95 -115 -51 c-104 -47 -417 -176 -530 -220 -25 -10 -67
-27 -95 -38 -96 -39 -182 -71 -393 -146 -240 -86 -238 -85 -462 -61 -214 22
-328 54 -515 145 -187 91 -343 205 -495 362 -76 80 -88 88 -120 86 -19 0 -89
-4 -155 -8z m154 -140 c21 -10 69 -48 106 -82 37 -34 77 -70 89 -78 12 -8 36
-27 52 -43 16 -15 35 -25 42 -22 6 2 12 -2 12 -9 0 -7 22 -25 48 -39 27 -15
57 -38 68 -52 10 -14 27 -25 36 -25 10 0 18 -5 18 -11 0 -6 6 -9 14 -6 8 3 22
-3 32 -14 10 -11 55 -37 100 -58 44 -21 84 -43 88 -49 17 -28 -58 -41 -282
-48 -347 -11 -391 -10 -380 3 13 16 -4 17 -19 2 -7 -7 -19 -9 -28 -5 -15 5
-15 9 -4 23 13 14 11 16 -13 11 -24 -4 -26 -3 -17 13 5 11 17 19 25 19 10 0
14 6 11 15 -4 8 -1 17 5 21 7 5 5 11 -6 20 -10 7 -15 17 -12 22 3 5 -13 26
-34 47 -22 22 -40 45 -40 52 0 8 -10 17 -22 22 -13 5 -36 20 -51 33 -16 14
-85 53 -155 89 -139 69 -152 79 -152 106 0 44 71 58 308 61 104 2 129 -1 161
-18z m5671 -156 c0 -8 5 -14 10 -14 6 0 10 8 10 17 0 13 3 14 12 5 9 -9 3 -19
-23 -41 -19 -17 -47 -37 -64 -46 -16 -8 -24 -15 -17 -15 17 0 15 -20 -3 -20
-8 0 -15 5 -15 10 0 16 -30 12 -36 -5 -4 -8 -12 -15 -19 -15 -8 0 -15 -10 -17
-22 -2 -17 -11 -24 -32 -26 -27 -3 -29 -2 -16 13 8 9 13 31 12 47 -2 28 0 30
23 24 28 -7 30 -4 13 27 -10 20 -10 21 6 7 16 -12 20 -12 35 9 19 25 101 71
114 64 4 -2 7 -11 7 -19z m-4110 -354 c0 -5 -7 -10 -15 -10 -8 0 -15 5 -15 10
0 6 7 10 15 10 8 0 15 -4 15 -10z m2936 -55 c-3 -9 -11 -13 -16 -10 -8 5 -7
11 1 21 14 18 24 11 15 -11z"/>
<path d="M8890 3410 c0 -5 7 -10 15 -10 8 0 15 5 15 10 0 6 -7 10 -15 10 -8 0
-15 -4 -15 -10z"/>
<path d="M6494 3102 c-11 -9 -26 -25 -34 -35 -13 -17 -12 -17 18 0 28 16 48
40 40 49 -2 1 -12 -5 -24 -14z"/>
<path d="M6420 3030 c0 -5 -6 -10 -13 -10 -7 0 -18 -9 -25 -20 -18 -30 0 -24
33 10 16 17 23 30 17 30 -7 0 -12 -4 -12 -10z"/>
<path d="M4237 2924 c-6 -6 -26 -11 -137 -35 -132 -27 -196 -32 -920 -59 -344
-13 -472 -23 -955 -75 -77 -8 -234 -24 -350 -35 -115 -11 -259 -24 -320 -30
-60 -6 -131 -12 -157 -15 -54 -5 -92 -21 -82 -36 4 -7 235 -8 682 -3 l677 7
45 -23 c25 -13 106 -51 180 -85 74 -35 275 -129 445 -210 493 -234 593 -274
785 -316 121 -26 365 -36 481 -20 98 14 237 49 245 62 11 19 33 6 115 -68 47
-43 127 -116 179 -163 52 -47 146 -132 210 -190 63 -58 203 -185 310 -282 107
-97 222 -204 255 -237 33 -34 64 -61 69 -61 5 0 35 26 65 58 68 70 172 164
541 491 157 139 332 297 390 350 121 112 127 116 143 103 43 -33 279 -72 440
-72 263 0 507 63 805 209 34 17 64 31 66 31 2 0 79 36 170 80 92 44 169 80
171 80 1 0 54 24 116 54 63 30 191 89 284 131 l170 76 665 -2 c737 -2 690 -2
690 10 0 13 -33 20 -140 31 -52 5 -162 16 -245 25 -203 20 -642 62 -790 75
-66 6 -160 15 -210 20 -49 5 -220 14 -380 20 -159 6 -362 15 -450 20 -88 6
-212 10 -275 10 -107 0 -234 15 -340 40 -48 12 -118 27 -162 37 -17 3 -28 1
-28 -6 0 -6 10 -11 21 -11 18 0 19 -2 9 -15 -13 -15 -8 -19 22 -16 9 1 26 -7
37 -18 12 -12 32 -21 45 -21 14 0 28 -4 31 -10 3 -5 36 -8 76 -5 l71 5 -17
-26 c-16 -24 -52 -67 -112 -130 -21 -23 -21 -24 -3 -24 10 0 23 6 27 14 4 7
27 15 50 18 38 5 42 4 52 -21 26 -69 35 -398 10 -427 -6 -8 -19 -29 -28 -46
-16 -33 -35 -43 -136 -68 -68 -18 -138 -23 -285 -23 -98 -1 -132 3 -157 16
-17 9 -38 15 -45 12 -7 -2 -21 7 -31 20 -16 22 -16 26 -3 31 9 3 16 12 16 20
0 8 7 14 15 14 9 0 20 11 25 24 5 13 19 31 31 40 13 8 20 18 17 21 -3 3 -18
-5 -34 -18 -67 -55 -191 -145 -221 -161 -19 -9 -43 -14 -60 -10 -17 3 -44 -2
-68 -13 -22 -9 -47 -18 -55 -18 -9 0 -14 -8 -12 -18 2 -11 -4 -17 -18 -17 -11
0 -29 -9 -40 -20 -11 -11 -24 -20 -29 -20 -17 0 -24 -22 -10 -32 10 -7 8 -8
-7 -3 -17 4 -30 -4 -56 -34 -26 -31 -37 -38 -46 -29 -12 12 -17 1 -13 -29 1
-7 -5 -13 -14 -13 -9 0 -31 -15 -48 -32 -47 -48 -107 -98 -118 -98 -5 0 -9 -4
-9 -9 0 -5 -16 -24 -37 -43 -20 -18 -52 -48 -71 -66 -20 -19 -40 -31 -49 -28
-10 4 -13 1 -8 -13 4 -14 0 -21 -13 -25 -11 -4 -49 -34 -85 -69 -36 -34 -102
-95 -146 -136 -45 -41 -81 -80 -81 -88 0 -7 -3 -13 -8 -13 -4 0 -20 -12 -35
-26 -16 -14 -31 -23 -35 -20 -8 9 -20 108 -21 180 -1 62 -11 71 -16 14 -6 -60
-17 -90 -28 -79 -6 6 -20 11 -30 11 -23 0 -65 28 -133 89 -28 25 -81 71 -117
101 -36 30 -66 61 -66 69 -1 7 -7 11 -16 7 -8 -3 -15 -1 -15 4 0 9 -79 87
-121 120 -11 8 -49 43 -85 77 -44 42 -71 60 -81 56 -12 -5 -15 -2 -10 10 4 11
1 17 -8 17 -8 0 -15 9 -15 20 0 12 -10 24 -22 30 -13 5 -39 24 -58 42 -19 18
-37 33 -40 33 -3 0 -24 19 -47 43 -24 25 -69 55 -109 73 -61 28 -75 30 -138
26 -39 -3 -109 -13 -156 -22 -61 -12 -132 -17 -253 -17 -216 1 -302 19 -524
109 -35 14 -70 23 -78 19 -8 -3 -15 -1 -15 4 0 5 -15 16 -32 23 -71 30 -134
59 -158 72 -35 19 -99 50 -140 68 -127 55 -307 142 -315 151 -9 10 -24 17
-110 50 -51 19 -101 54 -115 81 -7 14 -11 27 -9 29 2 3 31 6 64 6 33 1 76 6
95 10 19 4 136 11 259 14 123 4 227 8 230 11 4 2 70 6 147 9 188 8 271 15 319
28 154 43 260 91 251 114 -3 8 1 14 10 14 8 0 12 5 9 10 -7 11 -58 14 -68 4z
m3896 -106 c12 -7 29 -19 39 -26 9 -8 46 -14 87 -15 39 -1 71 -4 71 -7 0 -3
90 -6 201 -7 110 -1 210 -5 222 -9 12 -4 62 -8 112 -9 95 -3 222 -18 232 -29
3 -3 12 -1 20 6 11 8 19 6 35 -12 15 -16 18 -25 10 -28 -7 -2 -18 -9 -25 -15
-54 -51 -180 -117 -223 -117 -18 0 -22 -4 -17 -16 5 -14 1 -16 -26 -12 -24 3
-31 1 -27 -9 4 -9 -3 -13 -19 -13 -13 0 -27 -5 -30 -10 -6 -9 -43 -28 -170
-85 -16 -7 -50 -21 -75 -30 -25 -10 -77 -34 -117 -54 -39 -20 -89 -45 -110
-55 -21 -11 -42 -25 -46 -33 -4 -7 -21 -13 -37 -13 -15 0 -30 -3 -32 -7 -1 -5
-29 -30 -61 -56 -50 -43 -58 -46 -65 -30 -9 24 -9 640 1 676 8 30 17 33 50 15z"/>
<path d="M6275 2910 c-26 -29 -14 -33 14 -4 13 13 19 24 14 24 -6 0 -18 -9
-28 -20z"/>
<path d="M6218 2872 c-12 -5 -15 -11 -9 -21 8 -12 12 -12 25 2 26 26 20 33
-16 19z"/>
<path d="M6137 2795 c-27 -25 -45 -45 -40 -45 17 0 103 72 97 81 -7 12 -2 15
-57 -36z"/>
<path d="M7763 2586 c-34 -33 -73 -68 -86 -76 -41 -25 -130 -110 -123 -117 3
-4 21 7 39 23 17 17 55 48 82 69 28 22 66 55 85 74 19 18 45 40 58 48 20 14
31 45 15 42 -5 -1 -36 -29 -70 -63z"/>
</g>
</svg>
